<svg width="1200" height="1200" viewBox="0 0 1200 1200" fill="none" xmlns="http://www.w3.org/2000/svg">
<g clip-path="url(#clip0_101_107)">
<rect x="515.762" y="313" width="111.292" height="332.279" rx="55" transform="rotate(60 515.762 313)" fill="#EA4335"/>
<rect x="571.408" y="589.618" width="111.292" height="332.279" rx="55" transform="rotate(120 571.408 589.618)" fill="#4285F4"/>
<rect width="111.292" height="332.279" rx="55" transform="matrix(0.5 0.866025 0.866025 -0.5 622 589.618)" fill="#FBBC04"/>
<rect width="111.292" height="332.279" rx="55" transform="matrix(-0.5 0.866025 0.866025 0.5 677.646 313)" fill="#0F9D58"/>
<path d="M378.812 796.375C378.812 807 376.833 815.833 372.875 822.875C368.917 829.917 363.333 835.208 356.125 838.75C348.958 842.25 340.521 844 330.812 844H301.25V752.625H332.875C342.708 752.625 351.042 754.312 357.875 757.688C364.708 761.062 369.896 766 373.438 772.5C377.021 779 378.812 786.958 378.812 796.375ZM353.188 797.25C353.188 791.708 352.438 787.125 350.938 783.5C349.479 779.833 347.271 777.104 344.312 775.312C341.354 773.479 337.625 772.562 333.125 772.562H325.938V823.75H331.438C338.938 823.75 344.438 821.583 347.938 817.25C351.438 812.875 353.188 806.208 353.188 797.25ZM455 816.25C455 821.208 453.75 825.917 451.25 830.375C448.75 834.792 444.854 838.375 439.562 841.125C434.312 843.875 427.521 845.25 419.188 845.25C415.021 845.25 411.354 845.062 408.188 844.688C405.062 844.312 402.146 843.708 399.438 842.875C396.729 842 393.917 840.875 391 839.5V817.5C395.958 820 400.958 821.917 406 823.25C411.042 824.542 415.604 825.188 419.688 825.188C422.146 825.188 424.146 824.896 425.688 824.312C427.271 823.729 428.438 822.938 429.188 821.938C429.938 820.896 430.312 819.708 430.312 818.375C430.312 816.792 429.75 815.458 428.625 814.375C427.542 813.25 425.792 812.083 423.375 810.875C420.958 809.667 417.771 808.167 413.812 806.375C410.438 804.792 407.375 803.167 404.625 801.5C401.917 799.833 399.583 797.938 397.625 795.812C395.708 793.646 394.229 791.125 393.188 788.25C392.146 785.375 391.625 781.979 391.625 778.062C391.625 772.188 393.062 767.271 395.938 763.312C398.854 759.312 402.896 756.312 408.062 754.312C413.271 752.312 419.271 751.312 426.062 751.312C432.021 751.312 437.375 751.979 442.125 753.312C446.917 754.646 451.208 756.167 455 757.875L447.438 776.938C443.521 775.146 439.667 773.729 435.875 772.688C432.083 771.604 428.562 771.062 425.312 771.062C423.188 771.062 421.438 771.333 420.062 771.875C418.729 772.375 417.729 773.062 417.062 773.938C416.438 774.812 416.125 775.812 416.125 776.938C416.125 778.354 416.667 779.625 417.75 780.75C418.875 781.875 420.729 783.104 423.312 784.438C425.938 785.729 429.5 787.417 434 789.5C438.458 791.5 442.25 793.667 445.375 796C448.5 798.292 450.875 801.062 452.5 804.312C454.167 807.521 455 811.5 455 816.25ZM509.812 771.562C506.896 771.562 504.292 772.188 502 773.438C499.708 774.646 497.75 776.417 496.125 778.75C494.5 781.083 493.25 783.938 492.375 787.312C491.542 790.646 491.125 794.438 491.125 798.688C491.125 804.438 491.854 809.271 493.312 813.188C494.771 817.104 496.979 820.062 499.938 822.062C502.938 824.062 506.688 825.062 511.188 825.062C515.271 825.062 519.188 824.5 522.938 823.375C526.729 822.25 530.542 820.896 534.375 819.312V840.188C530.333 841.979 526.188 843.271 521.938 844.062C517.729 844.854 513.25 845.25 508.5 845.25C498.583 845.25 490.458 843.292 484.125 839.375C477.833 835.417 473.188 829.938 470.188 822.938C467.229 815.938 465.75 807.812 465.75 798.562C465.75 791.646 466.708 785.312 468.625 779.562C470.583 773.812 473.438 768.833 477.188 764.625C480.938 760.375 485.562 757.104 491.062 754.812C496.604 752.479 502.938 751.312 510.062 751.312C514.479 751.312 519.125 751.833 524 752.875C528.917 753.875 533.708 755.5 538.375 757.75L530.812 777.188C527.479 775.604 524.104 774.271 520.688 773.188C517.271 772.104 513.646 771.562 509.812 771.562ZM672.5 844H640.125L606.75 779.625H606.188C606.396 781.583 606.583 783.938 606.75 786.688C606.917 789.438 607.062 792.25 607.188 795.125C607.312 797.958 607.375 800.521 607.375 802.812V844H585.5V752.625H617.75L651 816.125H651.375C651.25 814.125 651.125 811.812 651 809.188C650.875 806.521 650.75 803.833 650.625 801.125C650.542 798.417 650.5 796.021 650.5 793.938V752.625H672.5V844ZM752 816.25C752 821.208 750.75 825.917 748.25 830.375C745.75 834.792 741.854 838.375 736.562 841.125C731.312 843.875 724.521 845.25 716.188 845.25C712.021 845.25 708.354 845.062 705.188 844.688C702.062 844.312 699.146 843.708 696.438 842.875C693.729 842 690.917 840.875 688 839.5V817.5C692.958 820 697.958 821.917 703 823.25C708.042 824.542 712.604 825.188 716.688 825.188C719.146 825.188 721.146 824.896 722.688 824.312C724.271 823.729 725.438 822.938 726.188 821.938C726.938 820.896 727.312 819.708 727.312 818.375C727.312 816.792 726.75 815.458 725.625 814.375C724.542 813.25 722.792 812.083 720.375 810.875C717.958 809.667 714.771 808.167 710.812 806.375C707.438 804.792 704.375 803.167 701.625 801.5C698.917 799.833 696.583 797.938 694.625 795.812C692.708 793.646 691.229 791.125 690.188 788.25C689.146 785.375 688.625 781.979 688.625 778.062C688.625 772.188 690.062 767.271 692.938 763.312C695.854 759.312 699.896 756.312 705.062 754.312C710.271 752.312 716.271 751.312 723.062 751.312C729.021 751.312 734.375 751.979 739.125 753.312C743.917 754.646 748.208 756.167 752 757.875L744.438 776.938C740.521 775.146 736.667 773.729 732.875 772.688C729.083 771.604 725.562 771.062 722.312 771.062C720.188 771.062 718.438 771.333 717.062 771.875C715.729 772.375 714.729 773.062 714.062 773.938C713.438 774.812 713.125 775.812 713.125 776.938C713.125 778.354 713.667 779.625 714.75 780.75C715.875 781.875 717.729 783.104 720.312 784.438C722.938 785.729 726.5 787.417 731 789.5C735.458 791.5 739.25 793.667 742.375 796C745.5 798.292 747.875 801.062 749.5 804.312C751.167 807.521 752 811.5 752 816.25ZM820.375 844H766.125V752.625H820.375V772.438H790.812V786.812H818.188V806.625H790.812V823.875H820.375V844ZM877.062 771.562C874.146 771.562 871.542 772.188 869.25 773.438C866.958 774.646 865 776.417 863.375 778.75C861.75 781.083 860.5 783.938 859.625 787.312C858.792 790.646 858.375 794.438 858.375 798.688C858.375 804.438 859.104 809.271 860.562 813.188C862.021 817.104 864.229 820.062 867.188 822.062C870.188 824.062 873.938 825.062 878.438 825.062C882.521 825.062 886.438 824.5 890.188 823.375C893.979 822.25 897.792 820.896 901.625 819.312V840.188C897.583 841.979 893.438 843.271 889.188 844.062C884.979 844.854 880.5 845.25 875.75 845.25C865.833 845.25 857.708 843.292 851.375 839.375C845.083 835.417 840.438 829.938 837.438 822.938C834.479 815.938 833 807.812 833 798.562C833 791.646 833.958 785.312 835.875 779.562C837.833 773.812 840.688 768.833 844.438 764.625C848.188 760.375 852.812 757.104 858.312 754.812C863.854 752.479 870.188 751.312 877.312 751.312C881.729 751.312 886.375 751.833 891.25 752.875C896.167 753.875 900.958 755.5 905.625 757.75L898.062 777.188C894.729 775.604 891.354 774.271 887.938 773.188C884.521 772.104 880.896 771.562 877.062 771.562Z" fill="#E9E9E9"/>
</g>
<defs>
<clipPath id="clip0_101_107">
<rect width="1200" height="1200" fill="white"/>
</clipPath>
</defs>
</svg>
